<?xml version="1.0" standalone="no"?><!DOCTYPE svg PUBLIC "-//W3C//DTD SVG 1.1//EN" "http://www.w3.org/Graphics/SVG/1.1/DTD/svg11.dtd"><svg t="1553674989766" class="icon" style="" viewBox="0 0 1024 1024" version="1.1" xmlns="http://www.w3.org/2000/svg" p-id="4792" xmlns:xlink="http://www.w3.org/1999/xlink" width="200" height="200"><defs><style type="text/css"></style></defs><path d="M256 432c0 25.6 22.4 48 48 48s48-22.4 48-48-22.4-48-48-48-48 22.4-48 48zM448 432c0 25.6 22.4 48 48 48s48-22.4 48-48-22.4-48-48-48-48 22.4-48 48zM672 432c0 25.6 22.4 48 48 48s48-22.4 48-48-22.4-48-48-48-48 22.4-48 48z" fill="#C3C3C3" p-id="4793"></path><path d="M956.8 96H67.2C48 96 32 112 32 131.2v598.4c0 19.2 16 35.2 35.2 35.2H320l147.2 144c25.6 25.6 70.4 25.6 96 0l134.4-144H960c19.2 0 35.2-16 35.2-35.2V131.2C992 112 976 96 956.8 96z m-32 598.4h-243.2c-9.6 0-19.2 3.2-25.6 9.6L512 860.8 355.2 704c-6.4-6.4-16-9.6-25.6-9.6H99.2V163.2h822.4v531.2z" fill="#9E9E9E" p-id="4794"></path></svg>