<?xml version="1.0" standalone="no"?><!DOCTYPE svg PUBLIC "-//W3C//DTD SVG 1.1//EN" "http://www.w3.org/Graphics/SVG/1.1/DTD/svg11.dtd"><svg t="1554084213801" class="icon" style="" viewBox="0 0 1024 1024" version="1.1" xmlns="http://www.w3.org/2000/svg" p-id="1282" xmlns:xlink="http://www.w3.org/1999/xlink" width="200" height="200"><defs><style type="text/css"></style></defs><path d="M509.525 62C262.646 62 62 246.2255 62 472.724c0 226.4985 189.9495 396.315 442.053 396.315 19.89 0 53.9595-1.494 82.296-4.473a29.3085 29.3085 0 0 1 19.647 4.9635l121.32 80.8065a39.591 39.591 0 0 0 21.888 6.714 39.852 39.852 0 0 0 19.143-4.968 40.779 40.779 0 0 0 20.8845-37.0395l-3.7305-122.823a34.56 34.56 0 0 1 12.4335-28.0935c104.1705-83.7945 159.12-184.4865 159.12-291.3975C957.05 246.23 756.4085 62 509.525 62z m257.3325 663.336a84.5055 84.5055 0 0 0-30.834 68.3685l3.231 104.67-105.4215-70.3665a79.3305 79.3305 0 0 0-52.7085-12.9285c-26.3475 2.979-58.176 4.2255-76.8195 4.2255-223.7625 0-392.337-149.175-392.337-346.5855 0-197.4105 178.2675-361.008 397.557-361.008s397.7955 161.856 397.7955 361.008c0.0045 92.4885-47.232 177.525-140.463 252.6165z" p-id="1283" fill="#707070"></path><path d="M526.58 285.614c-79.524-2.5155-127.2825 36.2475-143.361 109.4535h0.0945a25.3215 25.3215 0 0 0-0.7155 5.7555c0 13.743 11.178 24.831 24.8715 24.831 12.4605 0 22.734-9.234 24.5385-21.123 12.6045-50.994 41.0535-75.87 85.1895-74.6775 40.959 2.5245 63.3105 22.356 67.0275 59.508 2.4705 26.163-15.507 51.615-53.991 76.437-32.2965 22.311-47.808 51.462-46.5615 87.426v17.595c-0.054 0.5265-0.054 1.098-0.054 1.62 0 11.799 9.6075 21.4065 21.501 21.4065 11.844 0 21.4965-9.6075 21.4965-21.4065 0-0.666-0.045-1.1925-0.045-1.8045v-13.7025c-1.3815-27.3015 12.312-50.184 40.9545-68.8275 48.3255-29.772 71.298-63.8775 68.733-102.3615-6.1245-60.786-42.7545-96.417-109.6785-100.1295z m-17.073 366.03c-7.893 0-15.696 3.132-21.2625 8.748-5.616 5.616-8.8965 13.4595-8.8965 21.312a30.3795 30.3795 0 0 0 8.8965 21.312c5.562 5.5575 13.3695 8.8875 21.2625 8.8875a30.402 30.402 0 0 0 21.312-8.8875c5.616-5.67 8.8965-13.464 8.8965-21.312a30.3795 30.3795 0 0 0-8.8965-21.312 30.708 30.708 0 0 0-21.312-8.748z" p-id="1284" fill="#707070"></path></svg>