<?xml version="1.0" standalone="no"?><!DOCTYPE svg PUBLIC "-//W3C//DTD SVG 1.1//EN" "http://www.w3.org/Graphics/SVG/1.1/DTD/svg11.dtd"><svg t="1554341539977" class="icon" style="" viewBox="0 0 1024 1024" version="1.1" xmlns="http://www.w3.org/2000/svg" p-id="2813" xmlns:xlink="http://www.w3.org/1999/xlink" width="200" height="200"><defs><style type="text/css"></style></defs><path d="M472.615385 628.420923V196.923077a39.384615 39.384615 0 0 1 78.76923 0v438.272l174.08-174.08a39.384615 39.384615 0 0 1 55.729231 0l1.732923 1.693538a39.384615 39.384615 0 0 1 0 55.689847l-228.509538 228.509538a39.305846 39.305846 0 0 1-7.798154 11.106462l-1.732923 1.732923a39.266462 39.266462 0 0 1-29.538462 11.500307 39.266462 39.266462 0 0 1-29.459692-11.500307l-1.732923-1.732923a39.305846 39.305846 0 0 1-7.798154-11.106462l-228.509538-228.509538a39.384615 39.384615 0 0 1 0-55.689847l1.732923-1.732923a39.384615 39.384615 0 0 1 55.689846 0L472.615385 628.420923zM377.540923 827.076923h236.307692a39.384615 39.384615 0 1 1 0 78.769231h-236.307692a39.384615 39.384615 0 0 1 0-78.769231z" p-id="2814" fill="#707070"></path></svg>