<?xml version="1.0" standalone="no"?><!DOCTYPE svg PUBLIC "-//W3C//DTD SVG 1.1//EN" "http://www.w3.org/Graphics/SVG/1.1/DTD/svg11.dtd"><svg t="1553674872523" class="icon" style="" viewBox="0 0 1024 1024" version="1.1" xmlns="http://www.w3.org/2000/svg" p-id="3150" data-spm-anchor-id="a313x.7781069.0.i7" xmlns:xlink="http://www.w3.org/1999/xlink" width="200" height="200"><defs><style type="text/css"></style></defs><path d="M797.16874038 946.7839057c45.29156683-0.02617968 89.37884846-37.07101623 97.31141763-81.68190016l62.70132998-352.25319446c12.35700501-69.29871427-33.24872176-123.36061373-103.5422801-122.83701139l-12.59262585 0.10471996a24509.80606877 24509.80606877 0 0 1-64.8480987 0.44506204 4360.0332218 4360.0332218 0 0 1-69.63905633 0l-38.03967937-0.52360232 14.11107226-35.3431299c12.56644616-31.46847605 26.70369813-117.49627177 26.38953699-157.10675691-0.75922319-89.640649-38.48474142-140.95363839-85.03295291-140.40385638-57.2035098 0.68068291-85.24239286 28.79810624-85.08531226 111.84137099 0.26180057 138.25708767-125.35030064 277.4828397-276.27855566 276.25237479a1489.90927508 1489.90927508 0 0 0-25.31615262 0l-4.31971589 0.0523606c-0.23562085 0 0.78540288 502.05570453 0.78540289 502.05570453 0-0.10471997 563.39566994-0.60214264 563.39566994-0.60214139z m-21.23205759-608.58251682a18815.66132357 18815.66132357 0 0 0 64.66483722-0.44506205l12.61880678-0.10471997c103.09721927-0.75922319 173.57403788 82.86000449 155.50977146 184.38641799L946.02876699 874.26503837c-12.38318591 69.53433512-78.14758717 124.80051862-148.807666 124.8790589l-563.18623 0.47124174A52.36019281 52.36019281 0 0 1 181.4128776 947.56930859l-1.04720343-502.13424607a52.30783222 52.30783222 0 0 1 51.96749017-52.43873188l4.50297737-0.05236059c7.25188624-0.07854028 16.10075918-0.07854028 26.18009577 0 120.48080274 0.96866316 223.70892167-113.43835645 223.52566142-223.81364291C486.33245771 57.21041589 537.5930865 5.87124805 623.33290198 4.82404339c79.98019349-0.94248348 137.05280364 76.70768231 137.99528712 192.31898713 0.31416117 34.95042843-8.40381086 96.7354559-19.26855164 141.18925926 9.84371577 0 21.20587793-0.05236059 33.85086439-0.1309009zM76.69249322 449.88567928v497.4218275h28.79810501a26.18009579 26.18009579 0 0 1 0 52.36019286H57.26686101A32.77748004 32.77748004 0 0 1 24.33230036 966.94257899v-536.69197186c0-18.14280667 14.81793486-32.72512065 32.85602034-32.72512067h47.7524955a26.18009579 26.18009579 0 0 1 0 52.36019282H76.69249322z" fill="#707070" p-id="3151" data-spm-anchor-id="a313x.7781069.0.i8" class="selected"></path></svg>